<svg id="Layer_1" data-name="Layer 1" xmlns="http://www.w3.org/2000/svg" viewBox="0 0 24 24">
  <g>
    <path d="M9.88317,6.65349,5.75064,8.28067c.5173.54375.51721.54352,1.13184.30116.208-.082.41689-.1619.62491-.24395.87918-.34677,1.75819-.694,2.66053-1.05025ZM13.92,7.2878c1.15531.45311,2.2494.88174,3.34309,1.31136.62233.24446.63162.24218,1.03354-.34176L14.24108,6.667ZM5.47074,10.34325a1.4253,1.4253,0,0,0-1.84-.58239,1.15044,1.15044,0,0,0-.5331,1.49232c.045-.1105.08148-.19848.11669-.287a.93883.93883,0,0,1,1.33178-.54732A.74736.74736,0,0,0,5.47074,10.34325Zm15.53211.89412a1.14142,1.14142,0,0,0-.60892-1.51087,1.37058,1.37058,0,0,0-1.766.695c.23072.04675.4859.18684.66034.11909C20.2413,10.17042,20.616,10.29675,21.00285,11.23737Zm-9.37064-7.0278c-.3941.16609-.42466.19026-.38543.46337q.11315.78783.25739,1.571c.0142.07767.102.14188.15577.21232l.11482-.04858Zm1.01926-.04045-.18511.0591-.14815,2.1871.12989.0423a.92994.92994,0,0,0,.14175-.25473c.09027-.4801.19124-.96077.23355-1.446A1.72332,1.72332,0,0,0,12.65147,4.16912Zm-1.55231.41421c-.38219.17526-.383.17545-.30724.4861.09205.37762.17575.75776.285,1.1304.02947.10055.13822.17786.21058.26584l.099-.08163Zm1.61925,1.82555.12738.05221a.9676.9676,0,0,0,.16771-.24656c.10842-.37363.202-.75166.29592-1.12937.0844-.33957.07987-.34276-.32018-.47278Zm.39443-.01329c.36571.03558.52319-.23675.697-1.21507.01891-.10644-.11148-.23939-.17262-.36l-.1312.04833ZM10.2224,4.95987c.12694.45412.22337.86287.36286,1.25637.03822.10782.20545.16992.31348.253l.08047-.1-.39461-1.5299Zm-.52105-.09795c.2477,1.04435.48924,1.50314.84388,1.51853C10.22761,5.89744,10.41128,5.20718,9.70135,4.86192ZM13.67711,6.4133c.45062-.379.49279-.96462.74387-1.5057C13.95872,5.04391,13.80134,5.35228,13.67711,6.4133Z" fill="#fff"/>
    <path d="M23.8004,16.95475l-.21939-.12642v.662l-.31431-.39241-.07444.01826.17163.7319-.309-.04278.4559.80947-.06241.08363-.78048-.61226.09147.78761c-.35118-.3681-.41135-.77855-.2216-1.642l-.3037.18943c.092-.19659.14872-.33089.21658-.45933.06993-.13237.15068-.259.24119-.4128l-.19893.01134c-.09936-.25211.51242-.37866.11881-.668a7.962,7.962,0,0,1-.69067.61706.476.476,0,0,0-.17538.71866c.2201.33544.10136.54-.15967.78354a3.54754,3.54754,0,0,0-.80339.95687c-.08919.1816.02307.45589-.34015.511a1.20013,1.20013,0,0,1,.35085-1.10474,4.44588,4.44588,0,0,0,.56984-.56015c.0695-.08357.05956-.2332.08894-.36731a6.83848,6.83848,0,0,0-1.20576.76448,4.9569,4.9569,0,0,0-.64746,1.0671,1.01017,1.01017,0,0,1,.24827-1.08277c.15318-.09793.30178-.20339.44894-.31029a.778.778,0,0,0,.40434-.93076,14.21235,14.21235,0,0,1-.22263-1.49986c-.0139-.08531-.11232-.16549-.18694-.23056-.18759-.16357-.467-.27914-.55993-.48239a2.72215,2.72215,0,0,0-1.0012-.9742c-.10811-.08214-.29374-.06223-.54688-.10754.21795.37086.83212.465.31271.9668l-.36841-.72676c-.62951.46241-.32119.79147-.19257.98329.23414.34919-.00739.41115-.193.58562-.09715-.28961-.188-.532-.25671-.78047-.02444-.08833-.035-.23333.01561-.28131.44637-.4234.27239-.9788.33846-1.48218.0105-.08.03125-.15871.05082-.25563l1.42793.1351c.16725-.37014.87074-.55977.63964-1.20879l-.16041-.07763-.2496.54105h-.4551c.59681-1.07622-.35469-1.08842-.9-1.40868.19993.02955.40345.04438.59891.09222a.65821.65821,0,0,0,.71795-.14355.80243.80243,0,0,1,1.13435.28082,3.36564,3.36564,0,0,1,.45654,2.34969,1.20816,1.20816,0,0,0,.58193,1.29524c.38313.30794.87664.50852.97873,1.09416.0191.10958.29949.21445.473.24589a3.32392,3.32392,0,0,0,.66682-.00686ZM18.07478,13.655l.54519-.42832-.54519-.29165Z" fill="#fff"/>
    <path d="M5.90127,10.70158c-.1921.08075-.3835.16324-.57645.24191-.52876.21556-.57456.30343-.42553.84174.02188.079.05542.15484.09807.272H4.54912l-.27717-.5989c-.26623.51259-.26623.51259.52033,1.34654L6.262,12.66416c0,.21476-.00238.40749.00051.60014a1.27318,1.27318,0,0,0,.26721,1.03532c.0869.0838.07919.30886.05208.45766a5.59157,5.59157,0,0,1-.22279.70162c-.18457-.15354-.4248-.20967-.19388-.56245.13133-.20064.405-.52425-.16562-.96287l-.413.63346c-.21193-.2055-.21193-.2055.20747-.89179a1.45178,1.45178,0,0,0-.4484.10686,2.42237,2.42237,0,0,0-1.00973,1.01934.30253.30253,0,0,1-.13528.15733c-.717.26119-.65165.9668-.81949,1.50953-.23281.75284.05495,1.26087.82371,1.7031a1.07645,1.07645,0,0,1,.31853,1.17517,1.84915,1.84915,0,0,1-.27069-.47307,1.25054,1.25054,0,0,0-.77547-.92433c-.25734-.12732-.49785-.28865-.84937-.49567a1.21837,1.21837,0,0,0,.12943.38814,3.86893,3.86893,0,0,0,.54658.52241,1.13876,1.13876,0,0,1,.34545,1.08456l-.13138.06012c-.061-.14262-.11477-.28883-.1845-.427a5.813,5.813,0,0,0-.34109-.62016,1.309,1.309,0,0,0-.32637-.32666c-.38564-.27473-.56666-.56945-.27618-1.04371.065-.10614-.04929-.38912-.16188-.5224a7.29964,7.29964,0,0,0-.75-.6796c-.363.27494.22958.4339.1309.66371l-.199-.01393.45832.84849-.28156-.14869a5.07088,5.07088,0,0,1,.06025.8594,4.98227,4.98227,0,0,1-.21406.82584l-.10585-.026.13458-.84143L.66,18.69816l-.08011-.08281.48506-.82472-.34252.06817.18544-.72888-.07308-.03433-.29862.38176v-.63462l-.28741.10551c.00235-.34306.36624-.667-.04912-1.05132a2.809,2.809,0,0,1,.63646-.03467c.37992.06861.56026-.10172.69348-.42731a1.9052,1.9052,0,0,1,.34132-.50428,1.51553,1.51553,0,0,1,.33882-.24761,1.50644,1.50644,0,0,0,.74935-1.8215A3.04445,3.04445,0,0,1,3.533,10.739a.72042.72042,0,0,1,.98016-.1745c.34693.335.68776.18464,1.04463.14509a3.19742,3.19742,0,0,0,.32383-.06875Zm.16552,2.19709-.59452.33525.53641.39812Z" fill="#fff"/>
    <path d="M12.046,20.43157a11.87171,11.87171,0,0,1-4.75626-7.03579c-.26005-1.31511-.40606-2.65275-.60486-3.98a.38833.38833,0,0,1,.31143-.49c1.62872-.54935,3.25-1.12081,4.87724-1.67451a.661.661,0,0,1,.39619.01c1.5757.53407,3.14676,1.08182,4.72239,1.61609a.50559.50559,0,0,1,.41632.5995c-.23151,2.74078-.62318,5.43249-2.25842,7.76231A14.5517,14.5517,0,0,1,12.046,20.43157Zm.008-.33519a13.74042,13.74042,0,0,0,3.07645-3.28814,15.262,15.262,0,0,0,2.02267-7.327c.01885-.2396-.11619-.30986-.3008-.37357-1.53341-.5292-3.06433-1.06567-4.6-1.58814a.7282.7282,0,0,0-.43876.00178c-1.52184.52066-3.03724,1.06016-4.56,1.578a.39353.39353,0,0,0-.31961.48717c.11621.86035.19237,1.72765.3462,2.58106a11.67945,11.67945,0,0,0,1.83378,4.86785A14.41383,14.41383,0,0,0,12.054,20.09638Z" fill="#fff"/>
    <path d="M8.64393,6.38169c-.28218.564-.74659.52783-1.2623.32391-.23418.51123-.57632.81569-1.17929.60453-.20019.59233-.53527.90549-1.18213.73156-.12441-.03345-.29267.09623-.4407.15065.08431.11405.16653.22974.254.34131a1.03447,1.03447,0,0,0,.1171.11042l-.06.099a1.93746,1.93746,0,0,1-.58479-.37424c-.06988-.09267.01566-.4022.12947-.50811a1.62924,1.62924,0,0,1,.58583-.21285l-.10678-.1197.49059-.08252-.04561.37665a.39276.39276,0,0,0,.54478-.30216c.01576-.06663-.16635-.18-.32349-.33845l.272-.73949.83588.43627-.26784.21677.04727.1345a1.24,1.24,0,0,0,.41695-.14268A1.22613,1.22613,0,0,0,7.1,6.70457l-.445-.22081.35635-.38021-.27168-.45213c.59477-.25884.61987.45807.945.4513-.01891.17732-.10162.37632-.03688.45705.173.21573.51566.13175.75127-.1839l-.48127-.0335.3947-.3511-.21967-.25813.425-.26948.139.41016L9.18449,5.825l-.29238.34966c.27922.411.54644.172.81541-.01219C9.65118,6.631,9.45386,6.66979,8.64393,6.38169Z" fill="#fff"/>
    <path d="M9.88317,6.65349l.28475.63414c-.90234.35625-1.78135.70348-2.66053,1.05025-.208.08205-.41689.16192-.62491.24395-.61463.24236-.61454.24259-1.13184-.30116Z" fill="#fff"/>
    <path d="M13.92,7.2878l.32106-.62076L18.29665,8.2574c-.40192.58394-.41121.58622-1.03354.34176C16.16942,8.16954,15.07533,7.74091,13.92,7.2878Z" fill="#fff"/>
    <path d="M17.04737,6.15935l.42118.34681-.47013.18226a1.0386,1.0386,0,0,0,.16576.3604,1.18744,1.18744,0,0,0,.40385.17674c.01287.00462.07684-.07658.07095-.08477-.0647-.09-.13856-.17345-.20835-.25679a6.92717,6.92717,0,0,1,.69639-.40732c.05369-.02466.23562.09386.26447.17848a3.40829,3.40829,0,0,1,.10428.58934c-.10087.082-.32171.19927-.30714.26065a.39262.39262,0,0,0,.5517.30968l-.07713-.37171h.53152l.00594.08956-.1941.14833.02443.05568.43182-.09372-.22033.2102c.40942-.09623.595.12686.5764.4291-.02212.36-.365.3528-.6696.406a1.21471,1.21471,0,0,1,.06535-.12023c.09742-.13235.19678-.26328.29545-.39471a1.46433,1.46433,0,0,0-.45822-.13563c-.73907.03679-.73859.0464-1.19728-.72072-.55559.1928-.90193-.07074-1.11688-.59222-.49712.13236-.99144.273-1.2646-.32592-.93208.24231-1.03182.22025-1.10829-.25809.1441.091.26866.22275.40945.24328a1.455,1.455,0,0,0,.49937-.13733l-.3803-.42278,1.05695.17322.18543.3798h-.40618l-.03424.14961a2.70925,2.70925,0,0,0,.5711.123.37836.37836,0,0,0,.26538-.21456c.02246-.053-.10713-.17045-.19553-.29846l.3866-.21991-.01032-.01324.34766.265Z" fill="#fff"/>
    <path d="M13.86274,6.53189l-.20942.67552a9.1563,9.1563,0,0,0-1.607-.27779,8.88932,8.88932,0,0,0-1.59685.28235l-.20828-.68008Z" fill="#fff"/>
    <path d="M5.47074,10.34325a.74736.74736,0,0,1-.9246.07565.93883.93883,0,0,0-1.33178.54732c-.03521.08848-.07171.17646-.11669.287a1.15044,1.15044,0,0,1,.5331-1.49232A1.4253,1.4253,0,0,1,5.47074,10.34325Z" fill="#fff"/>
    <path d="M21.00285,11.23737c-.38685-.94062-.76155-1.067-1.71458-.69681-.17444.06775-.42962-.07234-.66034-.11909a1.37058,1.37058,0,0,1,1.766-.695A1.14142,1.14142,0,0,1,21.00285,11.23737Z" fill="#fff"/>
    <path d="M12.14281,3.56843a2.93331,2.93331,0,0,1,.17618.75681c-.02474.704-.10343,1.40605-.16085,2.10888l-.13356.02509a.8129.8129,0,0,1-.1072-.23839c-.06036-.66952-.13126-1.33935-.1513-2.01051A2.0436,2.0436,0,0,1,11.97066,3.57Z" fill="#fff"/>
    <path d="M11.63221,4.20957l.14255,2.1981-.11482.04858c-.05376-.07044-.14157-.13465-.15577-.21232q-.14317-.78291-.25739-1.571C11.20755,4.39983,11.23811,4.37566,11.63221,4.20957Z" fill="#fff"/>
    <path d="M12.65147,4.16912a1.72332,1.72332,0,0,1,.17193.58774c-.04231.48526-.14328.96593-.23355,1.446a.92994.92994,0,0,1-.14175.25473l-.12989-.0423.14815-2.1871Z" fill="#fff"/>
    <path d="M11.09916,4.58333,11.38643,6.384l-.099.08163c-.07236-.088-.18111-.16529-.21058-.26584-.1092-.37264-.1929-.75278-.285-1.1304C10.7162,4.75878,10.717,4.75859,11.09916,4.58333Z" fill="#fff"/>
    <path d="M12.71841,6.40888l.27083-1.7965c.40005.13.40458.13321.32018.47278-.09388.37771-.1875.75574-.29592,1.12937a.9676.9676,0,0,1-.16771.24656Z" fill="#fff"/>
    <path d="M13.11284,6.39559,13.506,4.8688l.1312-.04833c.06114.12066.19153.25361.17262.36C13.636,6.15884,13.47855,6.43117,13.11284,6.39559Z" fill="#fff"/>
    <path d="M10.2224,4.95987l.3622-.12051.39461,1.5299-.08047.1c-.108-.08308-.27526-.14518-.31348-.253C10.44577,5.82274,10.34934,5.414,10.2224,4.95987Z" fill="#fff"/>
    <path d="M9.70135,4.86192c.70993.34526.52626,1.03552.84388,1.51853C10.19059,6.36506,9.94905,5.90627,9.70135,4.86192Z" fill="#fff"/>
    <path d="M13.67711,6.4133c.12423-1.061.28161-1.36939.74387-1.5057C14.1699,5.44868,14.12773,6.03427,13.67711,6.4133Z" fill="#fff"/>
    <path d="M16.72284,5.91669l.16757-.26646.04153.0823.02591-.02571L16.88047,5.66l.52432.323-.35742.17636.01281.00907.056-.29269-.40367.02773Z" fill="#fff"/>
    <path d="M16.88047,5.66l.07738.04681-.02591.02571-.04153-.0823Z" fill="#fff"/>
    <path d="M12.05571,19.62994a10.86833,10.86833,0,0,1-4.52356-7.28881c-.13412-.87206-.22691-1.75044-.34167-2.62553a.40225.40225,0,0,1,.31133-.50149c1.4452-.48722,2.88363-.99448,4.32859-1.48239a.74145.74145,0,0,1,.44346.005c1.44515.4891,2.8882.98477,4.324,1.50032a.50348.50348,0,0,1,.284.37028c-.17851,2.71287-.5963,5.35618-2.34744,7.58422A13.1934,13.1934,0,0,1,12.05571,19.62994Zm.01506-.22589c.39656-.35994.80714-.68349,1.15786-1.06244a17.48535,17.48535,0,0,0,1.49391-1.76315c1.44539-2.05068,1.76228-4.44426,1.98-6.85635a.45937.45937,0,0,0-.26393-.334C15.04246,8.88857,13.63986,8.407,12.236,7.92928a.59.59,0,0,0-.35437-.00416c-1.41745.48148-2.83117.974-4.24694,1.4604a.31078.31078,0,0,0-.24649.4012c.14477.94076.24271,1.889.39986,2.82752A10.70691,10.70691,0,0,0,12.07077,19.40405Z" fill="#fff"/>
    <path d="M13.62065,16.69954a1.92565,1.92565,0,0,0-.35316.1172c-.5586.34168-.82283.27593-1.14732-.30143-.22444-.39934-.44527-.8007-.69747-1.25473l-.93129,1.98185.11676.07122c.51818-.28277.44923-.98015.8629-1.36836.18478.323.353.6454.5482.95051a.84687.84687,0,0,0,.87148.39A.80551.80551,0,0,0,13.62065,16.69954ZM11.308,11.789l.02086.064c.20834-.07119.51439-.08058.60609-.22556.24205-.38269-.01024-.73434-.47118-.73524q-.12514-.00025-.2503,0c-.49353.00159-.51046.02479-.51466.64767-.00274.40641.31034.1913.48462.24743A.42494.42494,0,0,0,11.308,11.789Zm.79315-.88143c.06159.32053.05148.77933.1767.81984a1.98725,1.98725,0,0,0,1.05667-.01876c.06585-.01678.00947-.51315.00947-.80108ZM14.827,11.778c-.08287-.97018-.21721-1.05227-1.276-.82212.01571.19923.01913.40635.05442.60788.01365.07792.09641.20169.153.2047C14.11262,11.78731,14.46835,11.778,14.827,11.778Zm-4.29874-.84582c-1.118-.14632-1.23206-.07133-1.23237.78567C10.30161,12.01385,10.5774,11.8431,10.52827,10.93214Zm.2245,1.8958a8.79625,8.79625,0,0,0,.98514-.01411.38024.38024,0,0,0,.22492-.29339c-.00226-.19333.15215-.50724-.19566-.54859a9.44462,9.44462,0,0,0-1.09163-.00923Zm-.27679-.81087H9.23985a4.70376,4.70376,0,0,0,.11643.595c.02809.08442.1275.19992.20119.20493.32764.02227.65765.00966,1.02131.00966Zm1.7156.81207h1.15258l.08575-.87362c-.24012,0-.41866.00009-.5972,0C12.06313,11.95505,12.046,11.97635,12.19158,12.82914Zm2.65269-.83781h-1.2221l-.08485.77079C14.53548,13.014,14.73677,12.8998,14.84427,11.99133Zm-4.054,1.01684c.063.22819.0966.37385.14353.51507.1306.393.36008.50022.84085.38965.33949-.07807.17246-.35669.20305-.55128.04349-.27659-.10105-.372-.36606-.35654C11.36408,13.01956,11.11505,13.00817,10.79022,13.00817Zm2.44546.00043c-.29278,0-.5562.003-.81953-.00074-.37571-.00539-.27393.27813-.28173.47908-.00769.19812-.06066.42133.28146.43636C13.03825,13.95066,13.217,13.781,13.23568,13.0086Zm-1.33347-2.32808c.12955-.59781.08667-.80034-.16623-.85389-.57032-.12077-.75084.05-.88033.85389Zm2.66211,2.38667c-.96872-.19825-1.29761.02244-1.265.82C14.06978,13.96958,14.12741,13.93317,14.56432,13.06719ZM9.58915,13.029a.87093.87093,0,0,0,1.22812.81842C10.72532,12.99886,10.64419,12.9448,9.58915,13.029Zm3.75649-2.37248a3.16293,3.16293,0,0,0-.50019-.80173.63417.63417,0,0,0-.60918.04762,2.19242,2.19242,0,0,0-.08731.80156c.36786,0,.6465.00139.9251-.00124A2.51031,2.51031,0,0,0,13.34564,10.65653Zm-2.54091-.777c-.63393-.14593-.75643-.1104-1.21408.784C10.71715,10.7505,10.632,10.8296,10.80473,9.8795Zm3.72182.79159c-.43091-.77171-.57268-1.00643-1.24531-.76261C13.49585,10.83078,13.3436,10.73747,14.52655,10.67109Zm-5.37191.26339c-.83466-.11553-.89686-.06424-.97534.77644C8.94114,11.96631,9.10524,11.83984,9.15464,10.93448Zm5.80581-.00776c.00283.87447.06186.98907.96282.78273C15.83136,10.87121,15.79014,10.83632,14.96045,10.92672ZM8.14357,12.01036c.16561.90144.27772.98012,1.0212.74288C9.05428,11.8617,9.02563,11.84026,8.14357,12.01036Zm6.80662.77913c.85989.1093.99773-.00883.9576-.78976C15.01517,11.90887,15.00281,11.8373,14.95019,12.78949Zm.60529.29629c-.75839-.12734-.961.018-1.1999.8118C15.03647,14.0186,15.18553,13.39062,15.55548,13.08578Zm-5.80081.77963c-.34819-.84156-.57141-.98669-1.20316-.78221C9.03969,13.79181,9.29453,13.95749,9.75467,13.86541Zm5.831-3.23561c-.45736-.26781-.61128-.91212-1.3018-.75948C14.59754,10.33647,14.76477,10.93753,15.58572,10.6298Zm-7.00087.01781c.7812.08346.81785.05749,1.18978-.80768C9.124,9.76867,8.95221,10.35333,8.58485,10.64761ZM12.13933,16.228c.34344-.85252.92642-.34969,1.52314-.15563-.42974-.63863-.89376-.76949-1.3637-.47231C12.08275,15.73666,11.8458,15.88571,12.13933,16.228Zm-.15573-1.46963c-.025-.2825.01224-.5483-.06388-.58614a2.00873,2.00873,0,0,0-.63132-.10012l-.0256.10864Zm.9146-.627c-.78938-.11127-.86873-.04363-.67731.53944Zm.84333.00709a.70086.70086,0,0,0-.98071.47379ZM11.30708,9.56364c.63577.1184.70507.06109.57271-.44565Zm.84937-.49042.02582.52383h.65965Zm-1.81767,5.06,1.0038.48149A.73522.73522,0,0,0,10.33878,14.13326Z" fill="#fff"/>
    <path d="M13.62065,16.69954a.80551.80551,0,0,1-.7299.58628.84687.84687,0,0,1-.87148-.39c-.1952-.30511-.36342-.62747-.5482-.95051-.41367.38821-.34472,1.08559-.8629,1.36836l-.11676-.07122.93129-1.98185c.2522.454.473.85539.69747,1.25473.32449.57736.58872.64311,1.14732.30143A1.92565,1.92565,0,0,1,13.62065,16.69954Z" fill="#fff"/>
    <path d="M11.308,11.789a.42494.42494,0,0,1-.12457-.00178c-.17428-.05613-.48736.159-.48462-.24743.0042-.62288.02113-.64608.51466-.64767q.12514-.00041.2503,0c.46094.0009.71323.35255.47118.73524-.0917.145-.39775.15437-.60609.22556Z" fill="#fff"/>
    <path d="M12.10117,10.90761H13.344c0,.28793.05638.7843-.00947.80108a1.98725,1.98725,0,0,1-1.05667.01876C12.15265,11.68694,12.16276,11.22814,12.10117,10.90761Z" fill="#fff"/>
    <path d="M14.827,11.778c-.35866,0-.71439.00935-1.06861-.00954-.0566-.003-.13936-.12678-.153-.2047-.03529-.20153-.03871-.40865-.05442-.60788C14.6098,10.72569,14.74414,10.80778,14.827,11.778Z" fill="#fff"/>
    <path d="M10.52827,10.93214c.04913.911-.22666,1.08171-1.23237.78567C9.29621,10.86081,9.41027,10.78582,10.52827,10.93214Z" fill="#fff"/>
    <path d="M10.75277,12.82794l-.07723-.86532a9.44462,9.44462,0,0,1,1.09163.00923c.34781.04135.1934.35526.19566.54859a.38024.38024,0,0,1-.22492.29339A8.79625,8.79625,0,0,1,10.75277,12.82794Z" fill="#fff"/>
    <path d="M10.476,12.01707l.1028.80958c-.36366,0-.69367.01261-1.02131-.00966-.07369-.005-.1731-.12051-.20119-.20493a4.70376,4.70376,0,0,1-.11643-.595Z" fill="#fff"/>
    <path d="M12.19158,12.82914c-.14557-.85279-.12845-.87409.64113-.87363.17854.0001.35708,0,.5972,0l-.08575.87362H12.19158Z" fill="#fff"/>
    <path d="M14.84427,11.99133c-.1075.90847-.30879,1.02266-1.307.77079l.08485-.77079Z" fill="#fff"/>
    <path d="M10.79022,13.00817c.32483,0,.57386.01139.82137-.0031.265-.01551.40955.08.36606.35654-.03059.19459.13644.47321-.20305.55128-.48077.11057-.71025.00333-.84085-.38965C10.88682,13.382,10.85325,13.23636,10.79022,13.00817Z" fill="#fff"/>
    <path d="M13.23568,13.0086c-.01865.77235-.19743.94206-.8198.9147-.34212-.015-.28915-.23824-.28146-.43636.0078-.201-.094-.48447.28173-.47908C12.67948,13.01165,12.9429,13.0086,13.23568,13.0086Z" fill="#fff"/>
    <path d="M11.90221,10.68052H10.85565c.12949-.80386.31-.97466.88033-.85389C11.98888,9.88018,12.03176,10.08271,11.90221,10.68052Z" fill="#fff"/>
    <path d="M14.56432,13.06719c-.43691.866-.49454.90239-1.265.82C13.26671,13.08963,13.5956,12.86894,14.56432,13.06719Z" fill="#fff"/>
    <path d="M9.58915,13.029c1.055-.08421,1.13617-.03015,1.22812.81842A.87093.87093,0,0,1,9.58915,13.029Z" fill="#fff"/>
    <path d="M13.34564,10.65653a2.51031,2.51031,0,0,1-.27158.04621c-.2786.00263-.55724.00124-.9251.00124a2.19242,2.19242,0,0,1,.08731-.80156.63417.63417,0,0,1,.60918-.04762A3.16293,3.16293,0,0,1,13.34564,10.65653Z" fill="#fff"/>
    <path d="M10.80473,9.8795c-.17269.9501-.08758.871-1.21408.784C10.0483,9.7691,10.1708,9.73357,10.80473,9.8795Z" fill="#fff"/>
    <path d="M14.52655,10.67109c-1.18295.06638-1.0307.15969-1.24531-.76261C13.95387,9.66466,14.09564,9.89938,14.52655,10.67109Z" fill="#fff"/>
    <path d="M9.15464,10.93448c-.0494.90536-.2135,1.03183-.97534.77644C8.25778,10.87024,8.32,10.81895,9.15464,10.93448Z" fill="#fff"/>
    <path d="M14.96045,10.92672c.82969-.0904.87091-.05551.96282.78273C15.02231,11.91579,14.96328,11.80119,14.96045,10.92672Z" fill="#fff"/>
    <path d="M8.14357,12.01036c.88206-.1701.91071-.14866,1.0212.74288C8.42129,12.99048,8.30918,12.9118,8.14357,12.01036Z" fill="#fff"/>
    <path d="M14.95019,12.78949c.05262-.95219.065-.88062.9576-.78976C15.94792,12.78066,15.81008,12.89879,14.95019,12.78949Z" fill="#fff"/>
    <path d="M15.55548,13.08578c-.36995.30484-.519.93282-1.1999.8118C14.59449,13.10377,14.79709,12.95844,15.55548,13.08578Z" fill="#fff"/>
    <path d="M9.75467,13.86541c-.46014.09208-.715-.0736-1.20316-.78221C9.18326,12.87872,9.40648,13.02385,9.75467,13.86541Z" fill="#fff"/>
    <path d="M15.58572,10.6298c-.82095.30773-.98818-.29333-1.3018-.75948C14.97444,9.71768,15.12836,10.362,15.58572,10.6298Z" fill="#fff"/>
    <path d="M8.58485,10.64761c.36736-.29428.53911-.87894,1.18978-.80768C9.4027,10.7051,9.36605,10.73107,8.58485,10.64761Z" fill="#fff"/>
    <path d="M12.13933,16.228c-.29353-.34229-.05658-.49134.15944-.62794.46994-.29718.934-.16632,1.3637.47231C13.06575,15.87831,12.48277,15.37548,12.13933,16.228Z" fill="#fff"/>
    <path d="M11.9836,14.75837l-.7208-.57762.0256-.10864a2.00873,2.00873,0,0,1,.63132.10012C11.99584,14.21007,11.95864,14.47587,11.9836,14.75837Z" fill="#fff"/>
    <path d="M12.8982,14.13138l-.67731.53944C12.02947,14.08775,12.10882,14.02011,12.8982,14.13138Z" fill="#fff"/>
    <path d="M13.74153,14.13847l-.98071.47379A.70086.70086,0,0,1,13.74153,14.13847Z" fill="#fff"/>
    <path d="M11.30708,9.56364l.57271-.44565C12.01215,9.62473,11.94285,9.682,11.30708,9.56364Z" fill="#fff"/>
    <path d="M12.15645,9.07322l.68547.52383h-.65965Z" fill="#fff"/>
    <path d="M10.33878,14.13326a.73522.73522,0,0,1,1.0038.48149Z" fill="#fff"/>
  </g>
</svg>
