<svg id="Layer_1" data-name="Layer 1" xmlns="http://www.w3.org/2000/svg" viewBox="0 0 24 24">
  <g>
    <path d="M7.8111,14.43689v.42029s-3.4434,1.33091-4.413,2.38163c0,0-.80555.59541.17512,1.401L6.7954,20.426s-.24517,2.52173,1.8913,2.80192a3.345,3.345,0,0,0,3.2222-1.0157,3.2024,3.2024,0,0,0,3.22221,1.0641c2.31158-.32859,1.7512-2.99041,1.7512-2.99041l2.59178-2.17149s1.01569-.84058,0-1.401a30.51585,30.51585,0,0,0-3.6425-1.401v-.45531S11.82384,11.9873,7.8111,14.43689Z" fill="#fff"/>
    <g>
      <path d="M12.18708.90726c.46957.05743.94126.10143,1.40829.175a12.44872,12.44872,0,0,1,3.24663.815,7.141,7.141,0,0,1,2.95606,2.68564,2.02936,2.02936,0,0,1,.21124,1.9346,6.95649,6.95649,0,0,1-.89056,1.66578c-.51472.75275-1.02734,1.507-1.54936,2.2547a6.85629,6.85629,0,0,0-.85787,2.41591,9.83991,9.83991,0,0,1-.42539,1.25972c-.056.14185-.145.34745-.40286.19278l-.07667.74181a7.20321,7.20321,0,0,0-7.968-.54662c-.01694-.43792-.037-.84973-.0445-1.26177a.38441.38441,0,0,1,.08636-.19042,3.62644,3.62644,0,0,1,1.32059-1.17954.3835.3835,0,0,0,.17917-.15288,6.16975,6.16975,0,0,0-.58806.32721,4.93719,4.93719,0,0,0-.64919.52977c-.30515.30249-.64337.60365-.45173,1.13393l-.06492.00178c-.0591-.055-.12106-.10718-.17685-.16532A4.06215,4.06215,0,0,1,6.58011,12.023c-.20985-.60234-.43417-1.20038-.61994-1.81012C5.831,9.78877,5.789,9.3373,5.65045,8.917c-.31424-.95355-.7117-1.88171-.988-2.84524a2.96787,2.96787,0,0,1,1.8333-3.80965c.18152-.06233.383-.06614.56506-.12732C7.62423,1.94548,8.197,1.7739,8.7395,1.53512a5.54341,5.54341,0,0,1,2.116-.60052.28513.28513,0,0,0,.0806-.02734ZM10.44041,11.0638l.07132-.01405c-.05218-.30291-.1106-.60489-.15524-.9089a6.59494,6.59494,0,0,1-.14382-1.985c.24078-1.5823.46176-3.16821.652-4.7573a10.78866,10.78866,0,0,0,.01919-1.69643C10.86573,1.241,10.541,1.2,10.21463,1.27652a1.0204,1.0204,0,0,0-.44118.28535,1.46057,1.46057,0,0,0-.26371.41469,4.07028,4.07028,0,0,0-.34025,1.71879,21.28441,21.28441,0,0,0,.71765,5.40782C10.05014,9.762,10.25477,10.41056,10.44041,11.0638Zm5.69434.78824c.88218-2.45566,1.95088-5.00174,2.7846-7.655a1.1696,1.1696,0,0,0-.742.56588,7.01833,7.01833,0,0,0-.62729,1.14862c-.3116.793-.58152,1.60317-.84725,2.41325a8.21115,8.21115,0,0,0-.36926,1.385C16.22619,10.46655,16.189,11.23326,16.13475,11.852Zm-8.70353.19147c-.01427-.03844-.026-.078-.04317-.11515A13.99072,13.99072,0,0,1,6.45133,8.0061c-.10562-.71626-.13974-1.44291-.21163-2.16432A13.64263,13.64263,0,0,1,6.033,3.37757c.01716-.21267-.36462-.44268-.54648-.337A1.07976,1.07976,0,0,0,4.85958,4.0425a.90632.90632,0,0,0,.13084.37166,5.36565,5.36565,0,0,1,.41364.72072,13.52016,13.52016,0,0,1,.397,1.429c.268,1.16031.50284,2.32849.78416,3.48545A6.34168,6.34168,0,0,0,7.43122,12.04351Zm.87168-1.3906c-.007-.02657-.01254-.05359-.02107-.07965a11.75079,11.75079,0,0,1-.4-3.34445c-.02039-.659.00474-1.31932-.00353-1.97889C7.8691,4.519,7.84543,3.78819,7.82707,3.05736a.26164.26164,0,0,0-.01876-.1032A1.11447,1.11447,0,0,0,6.8532,2.4285c-.41755.07439-.49683.225-.29117.57964a4.25109,4.25109,0,0,1,.47678,1.02957,14.88792,14.88792,0,0,1,.31344,1.75541c.14325,1.06655.24549,2.13875.39767,3.2039A4.82448,4.82448,0,0,0,8.3029,10.65291Zm4.80458-8.98419c-.037.06-.07571.1191-.11073.18027a7.87376,7.87376,0,0,0-.93911,3.06354,16.10031,16.10031,0,0,0,.01019,3.2688c.05613.63362.13827,1.26494.19945,1.81418.05734-1.3309.097-2.74124.18464-4.14859A19.25453,19.25453,0,0,1,13.10748,1.66872Zm1.20633,9.44873c.08232-1.05268.17847-2.10452.24288-3.15829a7.71158,7.71158,0,0,1,.573-2.80929q.29655-.64559.58321-1.2957a6.30563,6.30563,0,0,0,.54757-1.91386C14.53186,4.76962,14.2654,7.90954,14.31381,11.11745Z" fill="#fafaed"/>
      <path d="M16.272,20.84771a1.61521,1.61521,0,0,1-.72513,1.83426,2.6321,2.6321,0,0,1-2.04426.20081,2.21083,2.21083,0,0,1-1.0985-.60234A1.65659,1.65659,0,0,1,12.15,21.9356a.818.818,0,0,1,.7095-1.27473,1.85617,1.85617,0,0,1,1.02025.20009c.17169.08944.34546.17489.51763.26341a1.48334,1.48334,0,0,0,1.64178-.12818c.07-.04944.1408-.09789.21168-.14613C16.256,20.84652,16.26483,20.84837,16.272,20.84771Z" fill="#5c4638"/>
      <path d="M7.309,20.83367l.282.19007a1.47421,1.47421,0,0,0,1.56866.12032c.23179-.11359.46079-.23313.695-.34146a1.58359,1.58359,0,0,1,1.09245-.098.74741.74741,0,0,1,.54609,1.0802,1.694,1.694,0,0,1-.51588.6673,2.75275,2.75275,0,0,1-2.65776.36391A1.62257,1.62257,0,0,1,7.309,20.83367Z" fill="#5c4638"/>
      <path d="M4.66158,17.97437c.5427.25328,1.0163.47468,1.49023.69536.24047.112.484.21774.72155.3355.18386.09114.21154.20892.10807.38631a.43635.43635,0,0,1-.68182.13352,4.29757,4.29757,0,0,0-.63087-.366c-.54665-.269-1.09874-.527-1.64935-.78795-.27338-.12956-.34112-.2817-.18435-.545a1.54188,1.54188,0,0,1,.39764-.44092,4.445,4.445,0,0,1,.62114-.33961c.42642-.21957.85586-.43332,1.28093-.65543a.32349.32349,0,0,1,.44958.08929c.11257.17548.0396.30385-.11777.39267-.23677.13364-.47963.25656-.72072.38248-.22848.11934-.466.22391-.68415.35961A3.2,3.2,0,0,0,4.66158,17.97437Z" fill="#5c4638"/>
      <path d="M19.21183,17.61129a.86582.86582,0,0,1-.15267.23762c-.63854.47565-1.28271.94375-1.92681,1.41191a1.77268,1.77268,0,0,1-.24018.14319.25049.25049,0,0,1-.37143-.078.25946.25946,0,0,1,.04766-.3966c.23156-.16743.48224-.30814.72006-.46729.28593-.19134.56751-.38923.84968-.58615.178-.12418.20254-.22315.03544-.35719a2.10286,2.10286,0,0,0-.55383-.30894c-.35964-.13894-.73421-.2392-1.094-.3777-.099-.03812-.27356-.0807-.20581-.26713a.3216.3216,0,0,1,.38558-.23709,4.37131,4.37131,0,0,1,2.36823,1.08079A1.537,1.537,0,0,1,19.21183,17.61129Z" fill="#5c4638"/>
      <path d="M14.6076,17.93528a.99677.99677,0,0,1-.27114.81534.70664.70664,0,0,1-.98577-.09337,1.17146,1.17146,0,0,1-.24343-1.1845c.09856-.29241.44118-.42805.85607-.393a.60574.60574,0,0,1,.58992.50308A2.99268,2.99268,0,0,1,14.6076,17.93528Zm-.59694.141c-.01994-.22519-.10326-.307-.25811-.304a.21738.21738,0,0,0-.23526.2462c.00119.15734.0918.2609.241.22951C13.8609,18.22642,13.94626,18.12266,14.01066,18.07628Z" fill="#5c4638"/>
      <path d="M10.48123,18.01342c-.01757.13929-.02711.27552-.0531.40853a.624.624,0,0,1-.5172.51151.663.663,0,0,1-.69551-.22944,1.27256,1.27256,0,0,1-.29433-.98264.67977.67977,0,0,1,.68376-.59466c.46976-.02729.72959.1224.81918.48505A3.83129,3.83129,0,0,1,10.48123,18.01342Zm-.83787.20742c.223-.025.329-.10433.33026-.26177a.219.219,0,0,0-.24421-.23532c-.15653-.00091-.258.08989-.2411.23212C9.50029,18.05676,9.59772,18.1475,9.64336,18.22084Z" fill="#5c4638"/>
      <path d="M8.34414,15.92658l.263-.09091c.0192.00938.03675.01208.04349.02207.229.33932.38449.41262.86525.22959.12049-.04587.24154-.09027.36223-.1356a.7201.7201,0,0,1,.95865.36078.232.232,0,0,1-.33434-.06191.42041.42041,0,0,0-.53843-.12186c-.207.07939-.42109.14024-.6311.21206a.65105.65105,0,0,1-.89006-.27266C8.41308,16.02827,8.38582,15.98652,8.34414,15.92658Z" fill="#5c4638"/>
      <path d="M12.56505,20.04251c-.21537.24406-.42048.40228-.69915.354-.23472-.04065-.35088-.24141-.455-.44949A.90076.90076,0,0,0,12.56505,20.04251Z" fill="#5c4638"/>
    </g>
    <rect x="-0.04435" y="-0.04435" width="24.08871" height="24.08871" fill="none"/>
  </g>
  <text transform="translate(3.79647 -0.66148)" font-size="4.00651" fill="#231f20" font-family="MyriadPro-Regular, Myriad Pro">codechef</text>
</svg>
