<svg id="Layer_1" data-name="Layer 1" xmlns="http://www.w3.org/2000/svg" viewBox="0 0 24 24">
  <g>
    <path d="M21.92525,19.10517a6.8408,6.8408,0,0,1-1.96748,1.74375A2.15161,2.15161,0,0,1,16.952,19.453c-.52422-1.82319-1.71986-2.11108-3.29385-2.04958-1.02068.03988-2.045.03291-3.06625.00171-1.65157-.05045-3.043.09235-3.5425,2.14687C6.74477,20.8049,5.07791,21.31411,3.798,20.85651a2.69162,2.69162,0,0,1-1.65677-2.98378,2.54973,2.54973,0,0,1,2.99483-2.06341c1.55172.47909,2.32415-.2194,2.99359-1.396.71743-1.26094,1.45673-2.50946,2.17209-3.77156.62716-1.10649.81971-2.10287-.25225-3.17357a2.52922,2.52922,0,0,1,.18613-3.62132,2.58682,2.58682,0,0,1,3.52312-.04951,2.44033,2.44033,0,0,1,.27153,3.59673,2.43237,2.43237,0,0,0-.25585,3.33063c.77766,1.35025,1.52865,2.71709,2.34713,4.04219A2.06147,2.06147,0,0,0,18.66993,15.867C20.38264,15.40259,21.97548,16.74575,21.92525,19.10517Zm-8.46613-4.09943-1.45588-2.5618-1.44263,2.5618Z" fill="#fff"/>
    <circle cx="12.0548" cy="5.68684" r="2.77996" fill="#fff"/>
    <circle cx="4.85354" cy="18.31316" r="2.77996" fill="#fff"/>
    <circle cx="19.14646" cy="18.31316" r="2.77996" fill="#fff"/>
  </g>
</svg>
