<svg id="Layer_1" data-name="Layer 1" xmlns="http://www.w3.org/2000/svg" viewBox="0 0 24 24">
  <g>
    <path d="M4.12332,11.21538H4.10694c0,1.87533-.00475,3.75069.00511,5.626a3.7224,3.7224,0,0,0,.114.8456A1.66637,1.66637,0,0,0,5.70639,18.974c.572.04781,1.148.06494,1.72227.06533,1.59373.0011,3.18763-.00364,4.78109-.02911A5.42819,5.42819,0,0,0,13.43182,18.85a11.50313,11.50313,0,0,0,1.46689-.4874,6.77331,6.77331,0,0,0,2.15421-1.426,7.79146,7.79146,0,0,0,1.97527-3.024,8.4761,8.4761,0,0,0,.4856-2.54066,6.96068,6.96068,0,0,0-.22289-2.02,9.73379,9.73379,0,0,0-.337-1.16274,7.93766,7.93766,0,0,0-1.447-2.36406,6.71656,6.71656,0,0,0-1.76412-1.462A9.58981,9.58981,0,0,0,14.291,3.68827a7.7089,7.7089,0,0,0-1.50174-.36262,12.18153,12.18153,0,0,0-1.60856-.08354c-1.762-.0099-3.52405-.01279-5.286.0003a1.62737,1.62737,0,0,0-1.13339.46049,2.16932,2.16932,0,0,0-.6361,1.66155C4.11992,7.31474,4.12332,9.26507,4.12332,11.21538Zm15.963,2.05551-.0458-.00448a.468.468,0,0,0-.04745.08847c-.10147.35264-.17532.71565-.30581,1.05706A9.05556,9.05556,0,0,1,18.207,16.95258a8.27169,8.27169,0,0,1-2.07167,1.81825,7.24371,7.24371,0,0,1-2.466.9921,9.488,9.488,0,0,1-1.55131.21518c-1.85643.02861-3.71351.021-5.5703.01457A10.02036,10.02036,0,0,1,5.50762,19.898c-.14488-.01574-.28779-.04962-.4316-.07525L5.04,19.85809c.0599.08695.114.17871.18073.26a1.65335,1.65335,0,0,0,1.09494.58449,8.1145,8.1145,0,0,0,1.08347.06269c1.81921-.00074,3.639.01171,5.4573-.03147a7.41276,7.41276,0,0,0,4.62636-1.90448,7.71979,7.71979,0,0,0,2.19993-3.33183,8.30025,8.30025,0,0,0,.41925-2.02755A1.27506,1.27506,0,0,0,20.08635,13.27089Z" fill="#40bbec"/>
    <path d="M4.12332,11.21538c0-1.95031-.0034-3.90064.002-5.85093a2.16932,2.16932,0,0,1,.6361-1.66155,1.62737,1.62737,0,0,1,1.13339-.46049c1.7619-.01309,3.524-.0102,5.286-.0003a12.18153,12.18153,0,0,1,1.60856.08354,7.7089,7.7089,0,0,1,1.50174.36262,9.58981,9.58981,0,0,1,1.45173.67495,6.71656,6.71656,0,0,1,1.76412,1.462,7.93766,7.93766,0,0,1,1.447,2.36406,9.73379,9.73379,0,0,1,.337,1.16274,6.96068,6.96068,0,0,1,.22289,2.02,8.4761,8.4761,0,0,1-.4856,2.54066,7.79146,7.79146,0,0,1-1.97527,3.024,6.77331,6.77331,0,0,1-2.15421,1.426,11.50313,11.50313,0,0,1-1.46689.4874,5.42819,5.42819,0,0,1-1.22207.16022c-1.59346.02547-3.18736.03021-4.78109.02911-.57425-.00039-1.15026-.01752-1.72227-.06533A1.66637,1.66637,0,0,1,4.22608,17.687a3.7224,3.7224,0,0,1-.114-.8456c-.00986-1.87528-.00511-3.75064-.00511-5.626Z" fill="#40bbec"/>
    <path d="M20.08635,13.27089a1.27506,1.27506,0,0,1,.01558.199,8.30025,8.30025,0,0,1-.41925,2.02755,7.71979,7.71979,0,0,1-2.19993,3.33183,7.41276,7.41276,0,0,1-4.62636,1.90448c-1.81835.04318-3.63809.03073-5.4573.03147a8.1145,8.1145,0,0,1-1.08347-.06269,1.65335,1.65335,0,0,1-1.09494-.58449c-.06678-.08129-.12083-.173-.18073-.26L5.076,19.8227c.14381.02563.28672.05951.4316.07525a10.02036,10.02036,0,0,0,1.04011.09473c1.85679.00648,3.71387.014,5.5703-.01457a9.488,9.488,0,0,0,1.55131-.21518,7.24371,7.24371,0,0,0,2.466-.9921A8.27169,8.27169,0,0,0,18.207,16.95258a9.05556,9.05556,0,0,0,1.48025-2.54064c.13049-.34141.20434-.70442.30581-1.05706a.468.468,0,0,1,.04745-.08847Z" fill="#40bbec"/>
  </g>
</svg>
