<svg id="Layer_1" data-name="Layer 1" xmlns="http://www.w3.org/2000/svg" viewBox="0 0 24 24">
  <g>
    <path d="M11.99571,2.1416c-1.93979,0-3.87959.00231-5.81936-.004a.34987.34987,0,0,0-.35482.20659Q3.17313,7.06779.51068,11.78343a.37978.37978,0,0,0,.00427.43436q2.72022,4.69621,5.426,9.40078a.42451.42451,0,0,0,.42663.24436q5.72841-.00939,11.45684.00008a.41691.41691,0,0,0,.42319-.24735q2.60523-4.68186,5.22879-9.35349a.47277.47277,0,0,0-.0087-.53579Q20.82632,7.0516,18.20215,2.36713a.38267.38267,0,0,0-.38709-.23014C15.8753,2.14456,13.9355,2.14159,11.99571,2.1416Z" fill="#fff"/>
    <path d="M11.99571,2.14159c1.93979,0,3.87959.003,5.81935-.0046a.38267.38267,0,0,1,.38709.23014q2.62479,4.68411,5.26554,9.35925a.47277.47277,0,0,1,.0087.53579q-2.62485,4.67088-5.22879,9.35349a.41691.41691,0,0,1-.42319.24735q-5.72841-.00957-11.45684-.00008a.42451.42451,0,0,1-.42663-.24436Q3.23614,16.91346.515,12.21779a.37978.37978,0,0,1-.00427-.43436Q3.17331,7.0679,5.82153,2.34424a.34987.34987,0,0,1,.35482-.20659C8.11612,2.14391,10.05592,2.1416,11.99571,2.14159ZM8.12494,11.99987c0,1.7721.00239,3.5442-.00358,5.31628-.00062.18445.04786.24827.24033.24708,1.28759-.008,2.57544.00716,3.86278-.01272a4.87759,4.87759,0,0,0,1.14027-.15994A5.5412,5.5412,0,0,0,12.06036,6.48439Q10.24251,6.482,8.42467,6.48417c-.29916,0-.29967.00042-.2997.2903Q8.12473,9.38717,8.12494,11.99987Z" fill="#05599c"/>
    <path d="M8.12491,11.99987q0-2.6127.00006-5.2254c0-.28988.00054-.29026.2997-.2903q1.81783-.00024,3.63569.00022a5.5412,5.5412,0,0,1,1.30438,10.90618,4.87759,4.87759,0,0,1-1.14027.15994c-1.28734.01988-2.57519.00472-3.86278.01272-.19247.00119-.24095-.06263-.24033-.24708C8.12733,15.54407,8.12494,13.772,8.12491,11.99987Zm2.25955.00455q0,1.52181.00055,3.04364c.0001.10123-.03154.22611.13948.22432a14.92263,14.92263,0,0,0,1.95119-.03311,3.27114,3.27114,0,0,0-.32457-6.50654c-.50721-.00869-1.01491.00392-1.52184-.01131-.207-.00623-.25091.06833-.24913.2621C10.38939,9.99041,10.38445,10.99744,10.38446,12.00442Z" fill="#fff"/>
    <path d="M10.38445,12.00442c0-1.007.00494-2.014-.00431-3.0209-.00178-.19377.04212-.26833.24913-.2621.50693.01523,1.01463.00262,1.52184.01131a3.27114,3.27114,0,0,1,.32457,6.50654,14.92263,14.92263,0,0,1-1.95119.03311c-.171.00179-.13938-.12309-.13948-.22432Q10.38365,13.52624,10.38445,12.00442Z" fill="#05599c"/>
  </g>
</svg>
