<svg id="Layer_1" data-name="Layer 1" xmlns="http://www.w3.org/2000/svg" viewBox="0 0 24 24">
  <g>
    <path d="M6.79386,12.67475Q6.79329,9.75586,6.79474,6.837c.002-.93293.15886-1.09728,1.07967-1.09906q4.16981-.00809,8.33965.00105c.88328.00227.99767.128,1.00741,1.01063a3.15772,3.15772,0,0,1-.039,1.01774c-.08485.24841-.37715.58308-.58521.58866-.21353.00573-.62126-.34022-.6227-.53465-.00563-.75507-.425-.80208-1.00664-.79656-2.00989.01908-4.02039.02736-6.03-.00435-.62531-.00986-.83082.22653-.82839.82126q.01976,4.84333-.00067,9.68677c-.003.618.25318.81888.84872.8125q3.0789-.033,6.15837-.00209c.59566.00512.85483-.19474.82532-.82531-.04194-.89613-.00675-1.79574-.01039-2.69384-.00184-.45229.12818-.85813.63318-.87353.51869-.01583.64807.38534.64641.84244-.00483,1.32577.00754,2.65166-.00566,3.97732-.00676.679-.22135.88885-.88721.8901q-4.29812.00807-8.59626.00018c-.65076-.00112-.92149-.29477-.92438-1.01544C6.789,16.65214,6.79424,14.66344,6.79386,12.67475Z" fill="#fff"/>
    <path d="M5.6162,10.42347a2.14379,2.14379,0,0,1-.43145.42225c-.71452.42708-1.4526.81454-2.17181,1.23406a6.50241,6.50241,0,0,0-.641.48364,5.3077,5.3077,0,0,0,.66143.54525c.73543.43447,1.501.8187,2.22907,1.26458.48936.29969.4949.83382.02939,1.06039a.74542.74542,0,0,1-.59251.00085C3.32838,14.69255,1.95948,13.94484.6182,13.15115c-.62452-.36956-.61225-.8073.00686-1.16493,1.31313-.75851,2.64138-1.49161,3.97652-2.21084A.6421.6421,0,0,1,5.6162,10.42347Z" fill="#f37421"/>
    <path d="M19.02563,9.5969a4.95233,4.95233,0,0,1,.519.20132c1.23544.67834,2.47155,1.35562,3.69988,2.04669.803.45177.79939,1.01437-.00485,1.46533-1.22929.6893-2.46959,1.35911-3.69455,2.05593-.37873.21544-.7124.22662-.94271-.15094-.23733-.38907-.04185-.70108.31724-.90587.70466-.40186,1.423-.78006,2.12292-1.18976a6.25923,6.25923,0,0,0,.68064-.5302,6.03091,6.03091,0,0,0-.67052-.52612c-.73659-.43118-1.50748-.80731-2.22-1.27365a.94206.94206,0,0,1-.27925-.74927C18.566,9.87518,18.87125,9.73231,19.02563,9.5969Z" fill="#f37421"/>
    <path d="M16.75632,9.80521c.10386.23511.28093.44073.24444.59626a1.71443,1.71443,0,0,1-.40706.77273c-1.36365,1.40881-2.74928,2.79635-4.12811,4.19046-.045.04548-.08964.12194-.1398.12663-.30538.02849-.6123.04037-.91871.05779.00894-.30607-.11029-.73416.04681-.89916,1.44034-1.51288,2.92145-2.98742,4.41232-4.45109A3.28767,3.28767,0,0,1,16.75632,9.80521Z" fill="#f37421"/>
    <path d="M4.45308,4.51115a3.09921,3.09921,0,0,0,1.23746,3.324c-.784.45314-1.49382.88124-2.22607,1.26669a.50318.50318,0,0,1-.46838-.15539A3.57728,3.57728,0,0,1,4.26625,4.49205C4.29468,4.47534,4.34675,4.49885,4.45308,4.51115Z" fill="#fff"/>
    <path d="M19.57138,4.34A3.54847,3.54847,0,0,1,21.1036,8.82683c-.07274.13951-.40192.29682-.50872.24254-.7144-.363-1.40075-.78125-2.17159-1.22495A3.2135,3.2135,0,0,0,19.57138,4.34Z" fill="#fff"/>
    <path d="M11.59723,10.89376c-.533-.00048-1.06628.01022-1.59889-.00406-.3852-.01033-.66313-.17964-.67108-.61013-.00837-.45335.2513-.66089.68077-.66321q1.63089-.00879,3.26188.00021a.601.601,0,0,1,.68066.60427c.01357.4388-.27108.65746-.69047.66949C12.70623,10.90622,12.15156,10.89424,11.59723,10.89376Z" fill="#fff"/>
    <path d="M10.20493,11.70069a5.8587,5.8587,0,0,1,.90567.4255c.20441.1404.48187.39911.46489.58073a.84575.84575,0,0,1-.48622.62445,3.04937,3.04937,0,0,1-1.31852-.00975.61072.61072,0,0,1-.19989-1.09888C9.80561,12.03421,10.03589,11.84011,10.20493,11.70069Z" fill="#fff"/>
  </g>
</svg>
