<svg id="Layer_1" data-name="Layer 1" xmlns="http://www.w3.org/2000/svg" viewBox="0 0 24 24">
  <g>
    <path d="M11.98159,15.72323c.00624.072.01791.14407.01795.2161q.00148,2.91738.00069,5.83475a1.39594,1.39594,0,0,1-1.09168,1.4773.2301.2301,0,0,0-.054.03587H3.71069c-.05079-.02336-.10046-.04963-.15254-.06962a1.34842,1.34842,0,0,1-.95448-1.2485c-.02915-.5641-.01278-1.13064-.01353-1.69611q-.00195-1.47631,0-2.95264a1.43438,1.43438,0,0,1,1.57717-1.56644q3.77949-.00033,7.559-.00121a2.52088,2.52088,0,0,0,.258-.02581Z" fill="#f06422"/>
    <path d="M11.98435,15.72692c.00587-.065.01684-.12995.01686-.19493q.00132-3.5328-.00007-7.06559c0-.06489-.012-.12977-.01845-.19465l-.00255.00194a1.40485,1.40485,0,0,1,.23182-.03838q3.8336-.00306,7.66719-.00087a1.41519,1.41519,0,0,1,1.53254,1.53979q.00422,2.22491,0,4.44982a1.41715,1.41715,0,0,1-1.53188,1.541q-3.83358.004-7.66718-.00085a1.31029,1.31029,0,0,1-.23092-.04081Z" fill="#f06422"/>
    <path d="M11.98269,8.27175c-.086-.00866-.172-.02484-.258-.02488Q7.89937,8.24483,4.0741,8.245A1.41379,1.41379,0,0,1,2.63832,7.17483a1.59473,1.59473,0,0,1-.04608-.392c-.00312-1.53575-.00753-3.07154.00025-4.60726A1.39423,1.39423,0,0,1,3.71594.7415,1.19867,1.19867,0,0,1,3.97762.71467Q7.29579.71245,10.614.71456a1.38665,1.38665,0,0,1,1.38433,1.36919q.00741,3.03108.00124,6.06219a.83417.83417,0,0,1-.01931.12767Z" fill="#f06422"/>
  </g>
</svg>
