<svg id="Layer_1" data-name="Layer 1" xmlns="http://www.w3.org/2000/svg" viewBox="0 0 24 24">
  <path d="M12.00869.22677A11.77344,11.77344,0,1,0,23.77184,12.24856,11.76489,11.76489,0,0,0,12.00869.22677Z" fill="#164b81"/>
  <g>
    <path d="M8.51952,7.06436h2.483v9.46607c-.05074.00329-.0981.009-.14547.00905-.72489.00057-1.44982-.00288-2.17466.0034-.13177.00114-.16976-.03734-.16565-.167.00906-.28552.00281-.57152.00281-.891-.04462.05149-.07308.07937-.09583.11131A3.0229,3.0229,0,0,1,5.9625,16.92977,4.23011,4.23011,0,0,1,4.3622,16.733,2.60517,2.60517,0,0,1,2.60284,14.6486,5.8911,5.8911,0,0,1,2.49638,13.52c-.00987-2.08588-.00473-4.17183-.00473-6.25776v-.197H4.9793c.004.07186.01148.14316.0115.21445.00064,1.95279-.00186,3.90558.00376,5.85834a2.901,2.901,0,0,0,.07508.672A1.2073,1.2073,0,0,0,6.114,14.7823a2.23714,2.23714,0,0,0,1.65951-.29338,1.56607,1.56607,0,0,0,.73677-1.34422c.016-1.95263.0081-3.90546.00927-5.85822C8.51955,7.21825,8.51952,7.15,8.51952,7.06436Z" fill="#fff"/>
    <path d="M12.99048,7.344h2.48188V8.62935c.1872-.2127.34888-.41488.52962-.59828a2.90935,2.90935,0,0,1,1.96218-.84088,4.3144,4.3144,0,0,1,1.47771.13082A2.6155,2.6155,0,0,1,21.386,9.41067a5.09427,5.09427,0,0,1,.117,1.068c.01074,2.04675.00526,4.09359.00518,6.1404,0,.20088-.00027.201-.19961.20106q-1.05053.00011-2.10106,0c-.05766,0-.11532,0-.19241,0,0-.08084,0-.14331,0-.20578-.00052-1.91363.00388-3.8273-.00762-5.74087a2.474,2.474,0,0,0-.13694-.734,1.139,1.139,0,0,0-.8606-.77611,2.34628,2.34628,0,0,0-1.46408.09388,1.69939,1.69939,0,0,0-1.06952,1.62484q-.00194,2.75949-.00043,5.519v.21055c-.05357.00307-.10033.00806-.1471.00809-.72995.00049-1.45991-.00215-2.18982.00283-.12091.00082-.16031-.03188-.16019-.15665q.00466-4.59421.00279-9.18844C12.98163,7.43881,12.98662,7.40011,12.99048,7.344Z" fill="#fff"/>
  </g>
</svg>
