<svg width="24" height="24" viewBox="0 0 24 24" fill="none" xmlns="http://www.w3.org/2000/svg">
<path d="M11.9909 1.9989C8.43887 1.9989 5.99087 4.44691 5.99087 7.99892C5.99087 8.48392 5.99087 8.99892 5.99087 9.99893C5.99087 10.9989 5.82887 11.5389 5.27187 11.9989C5.20887 12.0509 4.94487 12.2779 4.86587 12.3429C3.60087 13.3889 2.97987 14.3689 2.99087 15.9989C2.99887 17.0769 3.88387 18.01 4.99087 17.999H9.18186C9.18186 17.999 8.99087 18.61 8.99087 18.999C8.99087 20.656 10.3339 21.999 11.9909 21.999C13.6479 21.999 14.9909 20.656 14.9909 18.999C14.9909 18.61 14.8079 17.999 14.8079 17.999H18.9909C20.0949 18.002 20.9899 17.0829 20.9909 15.9989C20.9929 14.3809 20.3649 13.3839 19.1159 12.3429C19.0339 12.2739 18.7439 12.0529 18.6789 11.9989C18.1339 11.5449 17.9909 10.9989 17.9909 9.99893C17.9909 8.74892 17.9909 7.99892 17.9909 7.99892C17.9909 4.44691 15.5429 1.9989 11.9909 1.9989ZM11.9909 17.999C12.5429 17.999 12.9909 18.447 12.9909 18.999C12.9909 19.551 12.5429 19.999 11.9909 19.999C11.4389 19.999 10.9909 19.551 10.9909 18.999C10.9909 18.447 11.4389 17.999 11.9909 17.999Z" fill="#2A343D"/>
</svg>
