<svg width="25" height="24" viewBox="0 0 25 24" fill="none" xmlns="http://www.w3.org/2000/svg">
<g clip-path="url(#clip0_10_1037)">
<path fill-rule="evenodd" clip-rule="evenodd" d="M13.7 8.625C13.7 8.00368 14.2036 7.5 14.825 7.5C15.4463 7.5 15.95 8.00368 15.95 8.625C15.95 9.24632 15.4463 9.75 14.825 9.75C14.2036 9.75 13.7 9.24632 13.7 8.625ZM9.57495 7.5C8.95363 7.5 8.44995 8.00368 8.44995 8.625C8.44995 9.24632 8.95363 9.75 9.57495 9.75C10.1963 9.75 10.7 9.24632 10.7 8.625C10.7 8.00368 10.1963 7.5 9.57495 7.5ZM20.45 13.5C20.452 14.228 20.3574 14.9531 20.1687 15.6562L22.2537 16.5675C22.5737 16.7132 22.7494 17.0617 22.6765 17.4056C22.6036 17.7495 22.3015 17.9967 21.95 18C21.8467 18.0002 21.7445 17.9788 21.65 17.9372L19.6418 17.0625C18.2707 19.9278 15.3764 21.7515 12.2 21.7515C9.0235 21.7515 6.12916 19.9278 4.75808 17.0625L2.74995 17.9372C2.65543 17.9788 2.55324 18.0002 2.44995 18C2.09498 17.9998 1.78877 17.7507 1.71623 17.4033C1.6437 17.0558 1.8247 16.705 2.14995 16.5628L4.2312 15.6562C4.04246 14.9531 3.94789 14.228 3.94995 13.5V12.75H1.69995C1.28574 12.75 0.949951 12.4142 0.949951 12C0.949951 11.5858 1.28574 11.25 1.69995 11.25H3.94995V10.5C3.94789 9.77197 4.04246 9.04689 4.2312 8.34375L2.14995 7.43719C1.89843 7.33392 1.7225 7.10262 1.69013 6.83267C1.65777 6.56271 1.77404 6.29638 1.99402 6.13658C2.214 5.97679 2.50323 5.94856 2.74995 6.06281L4.75808 6.9375C6.12916 4.07219 9.0235 2.24854 12.2 2.24854C15.3764 2.24854 18.2707 4.07219 19.6418 6.9375L21.65 6.06C22.0272 5.90513 22.459 6.08002 22.6222 6.45373C22.7853 6.82744 22.62 7.26303 22.25 7.43437L20.1687 8.34844C20.3574 9.05158 20.452 9.77666 20.45 10.5047V11.2547H22.7C23.1142 11.2547 23.45 11.5905 23.45 12.0047C23.45 12.4189 23.1142 12.7547 22.7 12.7547H20.45V13.5ZM5.44995 11.25H18.95V10.5C18.95 6.77208 15.9279 3.75 12.2 3.75C8.47203 3.75 5.44995 6.77208 5.44995 10.5V11.25ZM11.45 20.2069V12.75H5.44995V13.5C5.45404 16.9359 8.03572 19.8217 11.45 20.2069ZM18.95 13.5V12.75H12.95V20.2069C16.3642 19.8217 18.9459 16.9359 18.95 13.5Z" fill="#9EADBF"/>
</g>
<defs>
<clipPath id="clip0_10_1037">
<rect width="24" height="24" fill="white" transform="translate(0.199951)"/>
</clipPath>
</defs>
</svg>
