<svg width="25" height="24" viewBox="0 0 25 24" fill="none" xmlns="http://www.w3.org/2000/svg">
<g clip-path="url(#clip0_10_1023)">
<path fill-rule="evenodd" clip-rule="evenodd" d="M22.5499 6H20.2999V5.25C20.2999 4.42157 19.6284 3.75 18.7999 3.75H6.79993C5.9715 3.75 5.29993 4.42157 5.29993 5.25V6H3.04993C2.2215 6 1.54993 6.67157 1.54993 7.5V9C1.54993 11.0711 3.22886 12.75 5.29993 12.75H5.64211C6.5451 15.6116 9.06445 17.6614 12.0499 17.9634V20.25H9.79993C9.38571 20.25 9.04993 20.5858 9.04993 21C9.04993 21.4142 9.38571 21.75 9.79993 21.75H15.7999C16.2141 21.75 16.5499 21.4142 16.5499 21C16.5499 20.5858 16.2141 20.25 15.7999 20.25H13.5499V17.9606C16.5443 17.6578 19.0287 15.5569 19.9324 12.75H20.2999C22.371 12.75 24.0499 11.0711 24.0499 9V7.5C24.0499 6.67157 23.3784 6 22.5499 6ZM5.29993 11.25C4.05729 11.25 3.04993 10.2426 3.04993 9V7.5H5.29993V10.5C5.29993 10.75 5.31211 11 5.33649 11.25H5.29993ZM18.7999 10.4156C18.7999 13.7456 16.129 16.4756 12.8459 16.5H12.7999C9.48622 16.5 6.79993 13.8137 6.79993 10.5V5.25H18.7999V10.4156ZM22.5499 9C22.5499 10.2426 21.5426 11.25 20.2999 11.25H20.2531C20.2838 10.9729 20.2995 10.6944 20.2999 10.4156V7.5H22.5499V9Z" fill="#9EADBF"/>
</g>
<defs>
<clipPath id="clip0_10_1023">
<rect width="24" height="24" fill="white" transform="translate(0.799927)"/>
</clipPath>
</defs>
</svg>
