<svg width="25" height="32" viewBox="0 0 25 32" fill="none" xmlns="http://www.w3.org/2000/svg">
<g clip-path="url(#clip0_10_1015)">
<path fill-rule="evenodd" clip-rule="evenodd" d="M21.6 14.8328V23.5C21.6 24.3284 20.9284 25 20.1 25H16.35C15.5215 25 14.85 24.3284 14.85 23.5V19.75C14.85 19.3358 14.5142 19 14.1 19H11.1C10.6858 19 10.35 19.3358 10.35 19.75V23.5C10.35 24.3284 9.6784 25 8.84998 25H5.09998C4.27155 25 3.59998 24.3284 3.59998 23.5V14.8328C3.59991 14.4131 3.77571 14.0125 4.08466 13.7284L11.5847 6.65219L11.595 6.64188C12.1672 6.1215 13.0412 6.1215 13.6134 6.64188C13.6166 6.64554 13.6201 6.64899 13.6237 6.65219L21.1237 13.7284C21.4296 14.014 21.6022 14.4144 21.6 14.8328Z" fill="white"/>
</g>
<defs>
<clipPath id="clip0_10_1015">
<rect width="24" height="24" fill="white" transform="translate(0.599976 4)"/>
</clipPath>
</defs>
</svg>
