<svg width="25" height="24" viewBox="0 0 25 24" fill="none" xmlns="http://www.w3.org/2000/svg">
<g clip-path="url(#clip0_10_1044)">
<path fill-rule="evenodd" clip-rule="evenodd" d="M12.4 7.5C9.91474 7.5 7.90002 9.51472 7.90002 12C7.90002 14.4853 9.91474 16.5 12.4 16.5C14.8853 16.5 16.9 14.4853 16.9 12C16.8974 9.51579 14.8842 7.50258 12.4 7.5ZM12.4 15C10.7432 15 9.40002 13.6569 9.40002 12C9.40002 10.3431 10.7432 9 12.4 9C14.0569 9 15.4 10.3431 15.4 12C15.4 13.6569 14.0569 15 12.4 15ZM20.65 12.2025C20.6538 12.0675 20.6538 11.9325 20.65 11.7975L22.0488 10.05C22.1975 9.86393 22.249 9.61827 22.1875 9.38813C21.9582 8.52619 21.6152 7.69861 21.1675 6.92719C21.0487 6.72249 20.8402 6.58592 20.605 6.55875L18.3813 6.31125C18.2888 6.21375 18.195 6.12 18.1 6.03L17.8375 3.80063C17.8101 3.56531 17.6732 3.35677 17.4681 3.23813C16.6964 2.79126 15.8689 2.44859 15.0072 2.21906C14.7769 2.15784 14.5312 2.20969 14.3453 2.35875L12.6025 3.75C12.4675 3.75 12.3325 3.75 12.1975 3.75L10.45 2.35406C10.264 2.20533 10.0183 2.15383 9.78815 2.21531C8.92635 2.44503 8.09883 2.78802 7.32721 3.23531C7.12252 3.35417 6.98594 3.56268 6.95877 3.79781L6.71127 6.02531C6.61377 6.11844 6.52002 6.21219 6.43002 6.30656L4.20065 6.5625C3.96534 6.58988 3.75679 6.72682 3.63815 6.93188C3.19129 7.70359 2.84862 8.5311 2.61909 9.39281C2.55786 9.6231 2.60971 9.86878 2.75877 10.0547L4.15002 11.7975C4.15002 11.9325 4.15002 12.0675 4.15002 12.2025L2.75409 13.95C2.60535 14.1361 2.55385 14.3817 2.61534 14.6119C2.84464 15.4738 3.18765 16.3014 3.63534 17.0728C3.75419 17.2775 3.9627 17.4141 4.19784 17.4412L6.42159 17.6887C6.51471 17.7862 6.60846 17.88 6.70284 17.97L6.96252 20.1994C6.9899 20.4347 7.12685 20.6432 7.3319 20.7619C8.10362 21.2087 8.93113 21.5514 9.79284 21.7809C10.0231 21.8422 10.2688 21.7903 10.4547 21.6413L12.1975 20.25C12.3325 20.2537 12.4675 20.2537 12.6025 20.25L14.35 21.6488C14.5361 21.7975 14.7818 21.849 15.0119 21.7875C15.8738 21.5582 16.7014 21.2152 17.4728 20.7675C17.6775 20.6486 17.8141 20.4401 17.8413 20.205L18.0888 17.9813C18.1863 17.8888 18.28 17.795 18.37 17.7L20.5994 17.4375C20.8347 17.4101 21.0433 17.2732 21.1619 17.0681C21.6088 16.2964 21.9514 15.4689 22.181 14.6072C22.2422 14.3769 22.1903 14.1312 22.0413 13.9453L20.65 12.2025ZM19.1406 11.5931C19.1566 11.8641 19.1566 12.1359 19.1406 12.4069C19.1295 12.5924 19.1876 12.7755 19.3038 12.9206L20.6341 14.5828C20.4814 15.0679 20.286 15.5385 20.05 15.9891L17.9313 16.2291C17.7468 16.2495 17.5764 16.3377 17.4531 16.4766C17.2727 16.6795 17.0805 16.8717 16.8775 17.0522C16.7387 17.1754 16.6505 17.3458 16.63 17.5303L16.3947 19.6472C15.9442 19.8833 15.4736 20.0787 14.9885 20.2313L13.3253 18.9009C13.1923 18.7946 13.0269 18.7367 12.8566 18.7369H12.8116C12.5406 18.7528 12.2689 18.7528 11.9978 18.7369C11.8123 18.7257 11.6292 18.7838 11.4841 18.9L9.81721 20.2313C9.33209 20.0786 8.86149 19.8831 8.41096 19.6472L8.17096 17.5312C8.15048 17.3467 8.06229 17.1764 7.92346 17.0531C7.7205 16.8727 7.5283 16.6805 7.34784 16.4775C7.22459 16.3387 7.05423 16.2505 6.86971 16.23L4.75284 15.9937C4.51677 15.5433 4.32131 15.0727 4.16877 14.5875L5.49909 12.9244C5.61525 12.7793 5.67338 12.5962 5.66221 12.4106C5.64627 12.1396 5.64627 11.8679 5.66221 11.5969C5.67338 11.4113 5.61525 11.2282 5.49909 11.0831L4.16877 9.41719C4.32142 8.93206 4.51688 8.46146 4.75284 8.01094L6.86877 7.77094C7.05329 7.75046 7.22365 7.66227 7.3469 7.52344C7.52736 7.32048 7.71956 7.12827 7.92252 6.94781C8.06191 6.82448 8.15046 6.65373 8.17096 6.46875L8.40627 4.35281C8.85675 4.11674 9.32736 3.92128 9.81252 3.76875L11.4756 5.09906C11.6208 5.21522 11.8039 5.27336 11.9894 5.26219C12.2604 5.24625 12.5321 5.24625 12.8031 5.26219C12.9887 5.27336 13.1718 5.21522 13.3169 5.09906L14.9828 3.76875C15.468 3.9214 15.9386 4.11685 16.3891 4.35281L16.6291 6.46875C16.6496 6.65326 16.7378 6.82362 16.8766 6.94688C17.0795 7.12733 17.2718 7.31954 17.4522 7.5225C17.5755 7.66133 17.7458 7.74952 17.9303 7.77L20.0472 8.00531C20.2833 8.45578 20.4787 8.9264 20.6313 9.41156L19.301 11.0747C19.1837 11.221 19.1255 11.406 19.1378 11.5931H19.1406Z" fill="#9EADBF"/>
</g>
<defs>
<clipPath id="clip0_10_1044">
<rect width="24" height="24" fill="white" transform="translate(0.400024)"/>
</clipPath>
</defs>
</svg>
