<svg width="48" height="49" viewBox="0 0 48 49" fill="none" xmlns="http://www.w3.org/2000/svg">
<rect y="0.5" width="48" height="48" rx="8" fill="#2C114A"/>
<g clip-path="url(#clip0_118_1396)">
<path fill-rule="evenodd" clip-rule="evenodd" d="M34.5 23.75C34.4974 21.2658 32.4842 19.2526 30 19.25H26.2688C25.9959 19.2341 21.2419 18.8994 16.7147 15.1025C16.2684 14.7276 15.6453 14.6453 15.1169 14.8913C14.5885 15.1373 14.2504 15.6671 14.25 16.25V31.25C14.2501 31.833 14.588 32.3632 15.1165 32.6094C15.6449 32.8557 16.2682 32.7734 16.7147 32.3984C20.2556 29.4284 23.9334 28.5772 25.5 28.3391V31.3128C25.4994 31.8148 25.7499 32.2839 26.1675 32.5625L27.1987 33.2497C27.6032 33.5196 28.1134 33.5768 28.5676 33.403C29.0218 33.2292 29.3635 32.846 29.4844 32.375L30.5878 28.2163C32.8269 27.9183 34.4995 26.0088 34.5 23.75V23.75ZM15.75 31.2434V16.25V16.25C19.7634 19.6166 23.8716 20.4688 25.5 20.6788V26.8175C23.8734 27.0313 19.7663 27.8816 15.75 31.2434V31.2434ZM28.0312 31.9934V32.0037L27 31.3166V28.25H29.025L28.0312 31.9934ZM30 26.75H27V20.75H30C31.6569 20.75 33 22.0931 33 23.75C33 25.4069 31.6569 26.75 30 26.75V26.75Z" fill="white"/>
</g>
<defs>
<clipPath id="clip0_118_1396">
<rect width="24" height="24" fill="white" transform="translate(12 12.5)"/>
</clipPath>
</defs>
</svg>
